<?xml version="1.0" encoding="utf-8"?>
<!-- Generator: Adobe Illustrator 22.1.0, SVG Export Plug-In . SVG Version: 6.00 Build 0)  -->
<svg version="1.1" id="Layer_1" xmlns="http://www.w3.org/2000/svg" xmlns:xlink="http://www.w3.org/1999/xlink" x="0px" y="0px"
	 viewBox="0 0 166.3 69.1" style="enable-background:new 0 0 166.3 69.1;" xml:space="preserve">
<style type="text/css">
	.st0{fill:#B33024;}
	.st1{fill:#D43D2B;}
	.st2{fill:#FFCF2B;}
	.st3{fill:#E6BA2A;}
	.st4{fill:#636669;}
	.st5{fill:#6C6D6D;}
	.st6{clip-path:url(#SVGID_3_);fill:#6C6D6D;}
	.st7{fill:#6B6E6E;}
</style>
<g>
	<g>
		<path class="st0" d="M16.1,12.5c0.4,1.1,1,2.1,1.7,3c0.1,0.1,0.2,0.1,0.3,0.1c0.1-0.1,0.1-0.2,0.1-0.3l0,0c-0.6-0.9-1-2-1.3-3
			c-0.3-1.1-0.5-2.1-0.5-3.2c0-0.5-0.1-0.9-0.1-1.4c-0.4,0-0.8,0-1.2,0.1c0.1,0.5,0.1,1,0.2,1.4C15.4,10.3,15.7,11.5,16.1,12.5z"/>
		<path class="st0" d="M31.5,12.3c-0.3,1.1-0.7,2.1-1.3,3l0,0c-0.1,0.1,0,0.2,0.1,0.3s0.2,0,0.3,0c0.7-0.9,1.2-1.9,1.7-3
			c0.4-1.1,0.7-2.2,0.9-3.3c0.1-0.5,0.2-1,0.2-1.4c-0.4-0.1-0.8-0.1-1.2-0.1l0,0c0,0,0,0.9-0.1,1.4C32,10.2,31.8,11.3,31.5,12.3z"/>
		<path class="st1" d="M40.2,15.5C40.2,15.4,40.2,15.4,40.2,15.5c0-0.1,0-0.2,0-0.2v-0.1v-0.1V15v-0.1v-0.1v-0.1v-0.1v-0.1v-0.1
			c0,0,0,0,0-0.1v-0.1c0,0,0,0,0-0.1V14c0,0,0,0,0-0.1v-0.1l0,0c0-0.1,0-0.1,0-0.2l0,0c0-0.1,0-0.1,0-0.2l0,0c-1-3.3-4-5.7-7.7-5.7
			l0,0c-0.2-4.2-3.7-7.5-8-7.5c-1.8,0-3.4,0.6-4.7,1.5c-1.9,1.4-3.1,3.5-3.3,6l0,0c-4.4,0-8,3.6-8,8c0,3.2,1.9,5.9,4.6,7.2
			c1.5,0.7,2.7,1.8,3.5,3.2l2.5,4.4c0.2,0.3,0.6,0.2,0.8,0l1.8-3.2c1.3-2.3,3.8-3.7,6.4-3.7h4.4c4.4,0,8-3.6,8-8
			C40.2,15.6,40.2,15.5,40.2,15.5z"/>
		<path class="st2" d="M18.8,38.6L12.9,43l-0.4,0.3c-0.4,0.3-0.4,0.8-0.2,1.1s0.4,0.7,0.6,1c1.7,2.8,4,6.6,5.4,8.8
			c0.2,0.4,0.6,0.6,1.1,0.6V38.4C19.2,38.4,19,38.5,18.8,38.6z"/>
		<path class="st3" d="M26.4,43.4L26,43.1l-5.8-4.4c-0.3-0.2-0.6-0.3-0.9-0.2V55h0.1l0,0c0.4,0,0.8-0.2,1-0.6
			c1.4-2.2,3.7-6.1,5.4-8.8c0.2-0.4,0.4-0.7,0.6-1C26.9,44.1,26.8,43.6,26.4,43.4z"/>
		<g>
			<ellipse class="st4" cx="12.6" cy="35.5" rx="3" ry="3"/>
			<ellipse class="st4" cx="26" cy="35.6" rx="3" ry="3"/>
		</g>
		<path class="st2" d="M6.9,51.9h4.7l-4.3-7c-2-3.3-2.8-7.2-2-10.9s3-6.9,6.1-9c-1.3-0.6-2.4-1.5-3.3-2.6C0.7,28-1.3,38.5,3.7,46.7
			L6.9,51.9z"/>
		<path class="st2" d="M35.2,27.3c-0.3-0.5-0.6-1-1-1.4c-0.7,0.1-1.3,0.2-2,0.2H29c1.1,0.9,2,2.1,2.8,3.3c2.9,4.7,2.9,10.5,0,15.2
			l-4.5,7.3H32l3.2-5.2C38.7,40.9,39,33.4,35.2,27.3z"/>
		<path class="st1" d="M25.4,55l-4.3,7l0,0l-1-1.4c-0.2-0.2-0.4-0.3-0.7-0.3c-0.2,0-0.4,0.1-0.6,0.3l-1,1.4l0,0l-4.3-7H8.8L17,68.4
			c0.3,0.2,0.8,0.2,1.1-0.2l0.8-1.1c0.1-0.2,0.3-0.2,0.5-0.3h0.1c0.2,0,0.4,0.1,0.5,0.3l0.8,1.1c0.3,0.4,0.7,0.4,1.1,0.2L30,55H25.4
			z"/>
		<g>
			<path class="st1" d="M40.2,15.5C40.2,15.4,40.2,15.4,40.2,15.5c0-0.1,0-0.2,0-0.2v-0.1v-0.1V15v-0.1v-0.1v-0.1v-0.1v-0.1v-0.1
				c0,0,0,0,0-0.1v-0.1c0,0,0,0,0-0.1V14c0,0,0,0,0-0.1v-0.1l0,0c0-0.1,0-0.1,0-0.2l0,0c0-0.1,0-0.1,0-0.2l0,0
				c-0.9-2.9-3.4-5.2-6.5-5.6c0,0.5-0.1,1.1-0.2,1.5c-0.2,1.1-0.5,2.3-0.9,3.3c-0.4,1.1-1,2.1-1.7,3c-0.1,0.1-0.2,0.1-0.3,0
				c-0.1-0.1-0.1-0.2-0.1-0.3l0,0c0.6-0.9,1-2,1.3-3c0.3-1.1,0.5-2.1,0.5-3.2c0-0.5,0.1-1.4,0.1-1.4l0,0c-0.2-4.2-3.7-7.5-8-7.5
				c-1.8,0-3.4,0.6-4.7,1.5c-1.9,1.4-3.1,3.5-3.3,6l0,0c0,0.3,0,0.7,0,1.4c0.1,1.1,0.3,2.2,0.5,3.2c0.3,1.1,0.7,2.1,1.3,3l0,0
				c0.1,0.1,0,0.2-0.1,0.3s-0.2,0-0.3-0.1c-0.7-0.9-1.2-1.9-1.7-3c-0.4-1.1-0.7-2.2-0.9-3.3c-0.1-0.4-0.1-1-0.2-1.4
				c-3.8,0.6-6.8,3.9-6.8,7.9c0,3.2,1.9,5.9,4.6,7.2c1.5,0.7,2.7,1.8,3.5,3.2l2.5,4.4c0.2,0.3,0.6,0.2,0.8,0l1.8-3.2
				c1.3-2.3,3.8-3.7,6.4-3.7h4.4C36.6,23.6,40.2,20,40.2,15.5C40.2,15.6,40.2,15.5,40.2,15.5z"/>
			<path class="st0" d="M16.1,12.5c0.4,1.1,1,2.1,1.7,3c0.1,0.1,0.2,0.1,0.3,0.1c0.1-0.1,0.1-0.2,0.1-0.3l0,0c-0.6-0.9-1-2-1.3-3
				c-0.3-1.1-0.4-2.2-0.5-3.2c-0.1-0.7,0-1.1,0-1.4l0,0c-0.4,0-0.8,0-1.2,0.1c0.1,0.5,0.1,1,0.2,1.4C15.4,10.3,15.7,11.5,16.1,12.5z
				"/>
			<path class="st0" d="M32.1,9.1c-0.1,1.1-0.3,2.2-0.5,3.2c-0.3,1.1-0.7,2.1-1.3,3l0,0c-0.1,0.1,0,0.2,0.1,0.3s0.2,0,0.3,0
				c0.7-0.9,1.2-1.9,1.7-3c0.4-1.1,0.7-2.2,0.9-3.3c0.1-0.4,0.2-0.9,0.2-1.5c-0.4-0.1-0.8-0.1-1.2-0.1l0,0l0,0l0,0
				C32.1,7.6,32.1,8.6,32.1,9.1z"/>
		</g>
	</g>
	<g>
		<path class="st5" d="M91.6,59.3c-1.3,0-2.4-1.1-2.4-2.4c0-1.3,1.1-2.4,2.4-2.4s2.4,1.1,2.4,2.4S92.9,59.3,91.6,59.3z M91.6,55.4
			c-0.8,0-1.5,0.7-1.5,1.5s0.7,1.5,1.5,1.5s1.5-0.7,1.5-1.5C93.1,56.1,92.4,55.4,91.6,55.4z"/>
	</g>
	<path class="st5" d="M106.6,55.4h2.4v-0.9h-2.4c-0.9,0-1.7,0.8-1.7,1.7v1.4c0,0.9,0.8,1.7,1.7,1.7h2.4v-0.9h-2.4
		c-0.4,0-0.8-0.4-0.8-0.8v-0.2h1.7v-0.9h-1.7v-0.2C105.8,55.7,106.2,55.4,106.6,55.4z"/>
	<path class="st5" d="M115.2,57.3L115.2,57.3c0.8,0,1.4-0.6,1.4-1.4c0-0.8-0.6-1.4-1.4-1.4h-1.6c-0.6,0-1.1,0.5-1.1,1.1v3.7h0.9v-2
		h0.8c0,0.4,0.2,0.9,0.6,1.3c0.4,0.4,1,0.7,1.7,0.7v-0.9c-0.5,0-0.8-0.1-1-0.4C115.4,57.8,115.3,57.5,115.2,57.3z M113.5,55.6
		c0-0.1,0.1-0.2,0.2-0.2h1.6c0.3,0,0.5,0.2,0.5,0.5s-0.2,0.5-0.5,0.5h-1.8L113.5,55.6z"/>
	<g>
		<g>
			<g>
				<path id="SVGID_1_" class="st5" d="M101.2,54.5l-1.6,3.7c-0.1,0.2-0.3,0.2-0.4,0.2l0,0c-0.1,0-0.2,0-0.4-0.2l-1.5-3.7h-1
					l1.7,4.1l0,0c0.2,0.4,0.7,0.7,1.2,0.7l0,0c0.5,0,0.9-0.3,1.2-0.7l0,0l1.7-4.1H101.2z"/>
			</g>
			<g>
				<defs>
					<path id="SVGID_2_" d="M101.2,54.5l-1.6,3.7c-0.1,0.2-0.3,0.2-0.4,0.2l0,0c-0.1,0-0.2,0-0.4-0.2l-1.5-3.7h-1l1.7,4.1l0,0
						c0.2,0.4,0.7,0.7,1.2,0.7l0,0c0.5,0,0.9-0.3,1.2-0.7l0,0l1.7-4.1H101.2z"/>
				</defs>
				<clipPath id="SVGID_3_">
					<use xlink:href="#SVGID_2_"  style="overflow:visible;"/>
				</clipPath>
				<rect x="96.4" y="54.5" class="st6" width="5.8" height="4.8"/>
			</g>
		</g>
	</g>
	<path class="st2" d="M148,40.5l0.4,0.1c3.4,0.8,5.5,1.4,5.5,3.6c0,3.2-4.2,3.4-5.5,3.4c-2.5,0-4.8-0.6-6.9-1.9l-0.8-0.5
		c-1,2-0.1,4.4,2,5.2c1.6,0.6,3.5,1.1,5.6,1.1c6,0,9.8-2.9,9.8-7.5c0-5.2-4.6-6.4-8.3-7.3h-0.2c-3.2-0.8-5.2-1.4-5.2-3.5
		c0-3,3.7-3.3,5.2-3.3c2.2,0,4.4,0.6,5.7,1l0.8,0.3c0.8-2.1-0.4-4.4-2.5-4.9c-1.1-0.2-2.3-0.4-3.7-0.4c-2.5,0-4.9,0.6-6.6,1.7
		c-2.1,1.3-3.2,3.4-3.2,5.8C140.3,38.5,145.1,39.8,148,40.5z"/>
	<path class="st2" d="M114.2,25.5c-1.2,0-2.3,0.5-3.2,1.3s-1.3,2-1.3,3.2l0.1,13.8L97.4,25.6l-0.1-0.1h-0.1c-2.5,0-4.5,2-4.5,4.5
		v21.5H93c1.2,0,2.3-0.5,3.1-1.3c0.8-0.8,1.3-1.9,1.3-3.1l-0.1-13.9l12.4,18.2l0.1,0.1h0.1c2.5,0,4.6-2.1,4.6-4.6V25.5H114.2z"/>
	<path class="st2" d="M129.4,51.6c2,0,4.6-0.7,6.3-1.3c1.3-0.4,2.1-1.6,2.1-3v-6.5c0-1.6-1.3-2.8-2.8-2.8h-4.1
		c-2.1,0-3.9,1.7-3.9,3.9l0,0h6.6v5.2c-1.4,0.4-2.7,0.6-4.1,0.6c-7.1,0-8.2-5.4-8.2-8.6c0-2.2,0.5-5.3,2.9-7.3
		c1.5-1.2,3.1-1.8,5.2-1.8c1.9,0,3.8,0.5,5.8,1.6L136,32l0,0c1-2.2-0.1-4.8-2.5-5.4c-1.1-0.3-2.4-0.5-3.9-0.5c-4,0-7.3,1.4-9.6,4.2
		c-2,2.4-3.1,5.7-3.1,9.3C117,45.3,120.2,51.4,129.4,51.6z"/>
	<path class="st2" d="M85.5,30.6v21l0,0c2.6,0,4.7-2.1,4.7-4.7v-21C87.6,25.9,85.5,28,85.5,30.6z"/>
	<path class="st2" d="M77,30.6l-7,13.1l-5.4-17.8l0,0l0,0c-2.9,0-5.4,1.9-6.2,4.6l-4.2,13.6l-9.7-18.2l0,0c-2.4,0-3.9,2.5-2.8,4.6
		l5.4,10.1l5.8,10.9l0,0c2.3,0,4.3-1.5,5-3.7l4.3-14l5.4,17.7l0,0c2.2,0,4.2-1.2,5.2-3.1l12-22.5l0,0C81.5,25.9,78.5,27.7,77,30.6z"
		/>
	<path class="st5" d="M47.4,55.9l-6.9-10.5c-0.1-0.1-0.2-0.2-0.4-0.1c-0.1,0.1-0.2,0.2-0.1,0.4l5.9,11.8c0.2,0.3,0.5,0.5,0.8,0.5
		h0.1l39.8,0.7v-3.5L47.4,55.9z"/>
	<path class="st5" d="M158.5,55.9l6.9-10.5c0.1-0.1,0.2-0.2,0.4-0.1c0.1,0.1,0.2,0.2,0.1,0.4L160,57.5c-0.2,0.3-0.5,0.5-0.8,0.5
		h-0.1l-39.8,0.7v-3.5L158.5,55.9z"/>
</g>
<g>
	<path class="st7" d="M162.6,55.3h1.1v0.3h-0.4v1H163v-1h-0.4V55.3z"/>
	<path class="st7" d="M163.9,55.3h0.4l0.4,0.7l0.4-0.7h0.4v1.2H165l0-0.8l-0.3,0.7h-0.2l-0.3-0.7v0.8h-0.3V55.3z"/>
</g>
</svg>
